<svg xmlns="http://www.w3.org/2000/svg" xmlns:xlink="http://www.w3.org/1999/xlink" width="34.666" height="34.666" viewBox="0 0 34.666 34.666">
  <defs>
    <clipPath id="clip-path">
      <rect id="Rectangle_5635" data-name="Rectangle 5635" width="34.666" height="34.666" fill="#d4b265"/>
    </clipPath>
  </defs>
  <g id="ic-services" clip-path="url(#clip-path)">
    <path id="Path_22610" data-name="Path 22610" d="M207.812,214.953a7.143,7.143,0,0,1,0-14.286,7.074,7.074,0,0,1,4.383,1.5.4.4,0,1,1-.492.633,6.279,6.279,0,0,0-3.891-1.334,6.341,6.341,0,1,0,5.117,2.6.4.4,0,0,1,.647-.474,7.143,7.143,0,0,1-5.764,11.362" transform="translate(-190.479 -190.477)" fill="#d4b265"/>
    <path id="Path_22611" data-name="Path 22611" d="M19.7,34.666H14.963a1.468,1.468,0,0,1-1.456-1.291l-.4-3.329a.248.248,0,0,0-.168-.2,13.25,13.25,0,0,1-1.345-.559.237.237,0,0,0-.251.024L8.7,31.382a1.468,1.468,0,0,1-1.943-.117L3.4,27.913a1.468,1.468,0,0,1-.117-1.943l2.075-2.645a.237.237,0,0,0,.024-.251,13.208,13.208,0,0,1-.559-1.345.248.248,0,0,0-.2-.168l-3.329-.4A1.468,1.468,0,0,1,0,19.7V14.963a1.468,1.468,0,0,1,1.291-1.456l3.329-.4a.248.248,0,0,0,.2-.168,13.212,13.212,0,0,1,.559-1.345.237.237,0,0,0-.024-.251L3.284,8.7A1.468,1.468,0,0,1,3.4,6.753l.838-.838a.508.508,0,0,1,.718.718l-.838.838a.452.452,0,0,0-.036.6l2.075,2.645a1.246,1.246,0,0,1,.14,1.318,12.182,12.182,0,0,0-.516,1.241,1.258,1.258,0,0,1-1.04.839l-3.329.4a.452.452,0,0,0-.4.448V19.7a.452.452,0,0,0,.4.448l3.329.4a1.258,1.258,0,0,1,1.04.839A12.175,12.175,0,0,0,6.3,22.634a1.246,1.246,0,0,1-.14,1.318L4.083,26.6a.452.452,0,0,0,.036.6l3.352,3.352a.452.452,0,0,0,.6.036l2.645-2.075a1.246,1.246,0,0,1,1.318-.14,12.208,12.208,0,0,0,1.241.516,1.257,1.257,0,0,1,.839,1.039l.4,3.329a.452.452,0,0,0,.448.4H19.7a.452.452,0,0,0,.448-.4l.4-3.33a1.257,1.257,0,0,1,.839-1.039,12.2,12.2,0,0,0,1.241-.516,1.246,1.246,0,0,1,1.319.14L26.6,30.583a.452.452,0,0,0,.6-.036l3.352-3.352a.452.452,0,0,0,.036-.6l-2.075-2.645a1.246,1.246,0,0,1-.14-1.318,12.189,12.189,0,0,0,.515-1.241,1.258,1.258,0,0,1,1.04-.839l3.329-.4a.452.452,0,0,0,.4-.448V14.963a.452.452,0,0,0-.4-.448l-3.329-.4a1.257,1.257,0,0,1-1.04-.839,12.2,12.2,0,0,0-.516-1.241,1.246,1.246,0,0,1,.139-1.318l2.075-2.645a.452.452,0,0,0-.036-.6L27.195,4.119a.452.452,0,0,0-.6-.036L23.952,6.158a1.246,1.246,0,0,1-1.319.14,12.2,12.2,0,0,0-1.241-.515,1.258,1.258,0,0,1-.839-1.039l-.4-3.329a.452.452,0,0,0-.448-.4H14.963a.452.452,0,0,0-.448.4l-.4,3.329a1.257,1.257,0,0,1-.839,1.039,12.2,12.2,0,0,0-1.241.516,1.246,1.246,0,0,1-1.318-.14L8.069,4.083a.452.452,0,0,0-.6.036l-.838.838a.508.508,0,0,1-.718-.718L6.753,3.4A1.468,1.468,0,0,1,8.7,3.284l2.645,2.075a.237.237,0,0,0,.251.024,13.216,13.216,0,0,1,1.345-.559.248.248,0,0,0,.168-.2l.4-3.329A1.468,1.468,0,0,1,14.963,0H19.7A1.468,1.468,0,0,1,21.16,1.291l.4,3.329a.248.248,0,0,0,.168.2,13.2,13.2,0,0,1,1.345.559.237.237,0,0,0,.251-.024L25.97,3.284a1.468,1.468,0,0,1,1.943.117l3.352,3.352A1.468,1.468,0,0,1,31.382,8.7l-2.075,2.645a.237.237,0,0,0-.024.251,13.213,13.213,0,0,1,.559,1.345.248.248,0,0,0,.2.168l3.329.4a1.468,1.468,0,0,1,1.291,1.456V19.7a1.468,1.468,0,0,1-1.291,1.456l-3.329.4a.248.248,0,0,0-.2.168,13.211,13.211,0,0,1-.559,1.345.237.237,0,0,0,.024.251l2.075,2.645a1.468,1.468,0,0,1-.117,1.943l-3.352,3.352a1.468,1.468,0,0,1-1.943.117l-2.645-2.075a.237.237,0,0,0-.251-.024,13.226,13.226,0,0,1-1.344.559.248.248,0,0,0-.168.2l-.4,3.329A1.468,1.468,0,0,1,19.7,34.666" fill="#d4b265"/>
  </g>
</svg>
