<svg id="img-logo" xmlns="http://www.w3.org/2000/svg" xmlns:xlink="http://www.w3.org/1999/xlink" width="384.067" height="116.829" viewBox="0 0 384.067 116.829">
  <defs>
    <clipPath id="clip-path">
      <rect id="Rectangle_12473" data-name="Rectangle 12473" width="384.067" height="116.829" fill="#fff"/>
    </clipPath>
  </defs>
  <g id="Group_30639" data-name="Group 30639" transform="translate(0 -0.001)">
    <g id="Group_30638" data-name="Group 30638" transform="translate(0 0.001)" clip-path="url(#clip-path)">
      <path id="Path_38796" data-name="Path 38796" d="M270.1,32.35,243.912,58.607a14.554,14.554,0,0,1-.632-4.971,16.347,16.347,0,0,1,1.08-5.38,11.943,11.943,0,0,1,2.7-4.171q11.3-11.248,22.557-22.541c.132-.13.273-.252.474-.439l31.77,31.774a16.933,16.933,0,0,0-.921-5.507,23.355,23.355,0,0,0-5.345-8.648c-3.871-4.064-7.857-8.019-11.813-12q-6.592-6.634-13.22-13.232c-.15-.15-.307-.294-.5-.482-.2.188-.391.358-.571.538-7.4,7.4-14.774,14.824-22.209,22.184a39,39,0,0,0-5.711,6.488A27.394,27.394,0,0,0,237.815,52.8a33.343,33.343,0,0,0,.207,10.056c.055.391-.022.8.037,1.192a6.612,6.612,0,0,0,.32.8c.671,2.257,1.332,4.517,2.021,6.864,9.94-9.947,19.719-19.73,29.593-29.609.8.834,1.464,1.545,2.15,2.234q13.2,13.246,26.411,26.492a11.827,11.827,0,0,1,3.711,6.318,18.692,18.692,0,0,1-.451,6.892c-.083.414-.191.822-.289,1.236L270.148,53.938l-31.51,31.509c-.623-.769-1.209-1.449-1.746-2.166a40.23,40.23,0,0,1-8.212-27.6,39.888,39.888,0,0,1,11.839-26.093q14.592-14.7,29.275-29.3c.067-.067.138-.129.308-.289.457.485.9.976,1.366,1.444,9.319,9.327,18.673,18.622,27.953,27.989,8.7,8.783,12.636,19.428,12.028,31.753a38.776,38.776,0,0,1-1.9,9.96c-.05.154-.113.3-.2.534L270.1,32.35" transform="translate(72.557 -0.001)" fill="#9c0"/>
      <path id="Path_38797" data-name="Path 38797" d="M251.346,68.247l15.11,15.1,15.111-15.11,11.48.337-26.588,26.59L239.876,68.6Z" transform="translate(76.144 21.661)" fill="#9c0"/>
      <path id="Path_38798" data-name="Path 38798" d="M268.024,61.553l-6.379,6.4-6.43-6.473,6.383-6.37c2.1,2.1,4.264,4.274,6.426,6.442" transform="translate(81.013 17.493)" fill="#9c0"/>
      <path id="Path_38799" data-name="Path 38799" d="M42.681,41.692a3.325,3.325,0,0,0,2.6.971h.905a.38.38,0,0,1,.361.158.6.6,0,0,1,.091.292v4.52a.6.6,0,0,1-.091.294.383.383,0,0,1-.361.158h-2.8a7.312,7.312,0,0,1-5.874-2.373,9.414,9.414,0,0,1-2.034-6.349V25.672H33.982q-6.644,0-6.642,6.1V48.085H11.072q-5.741,0-8.405-2.983A10.839,10.839,0,0,1,0,37.6v-5l6.326-6.924V36.608q0,6.057,6.642,6.055h8.044V30.778a10.917,10.917,0,0,1,2.666-7.524q2.664-3,8.4-3.005H41.8V38.37a4.935,4.935,0,0,0,.883,3.321M8.316,52.061h6.507v5.694H8.316Zm9.036,0h6.507v5.694H17.352Z" transform="translate(0 6.427)" fill="#fff"/>
      <path id="Path_38800" data-name="Path 38800" d="M53.306,25.514a10.764,10.764,0,0,1,4.316,4.133,11.527,11.527,0,0,1,1.536,5.9q0,4.249-2.711,11.343H35.164a.386.386,0,0,1-.362-.158.611.611,0,0,1-.088-.294V41.916a.607.607,0,0,1,.088-.294.386.386,0,0,1,.362-.158h2.711V24.926a63.864,63.864,0,0,1,8.993-.905,13.384,13.384,0,0,1,6.438,1.493M44.2,29.76v11.7h7.5a21.016,21.016,0,0,0,.9-5.83q0-6.189-5.513-6.191a14.011,14.011,0,0,0-2.892.316" transform="translate(11.019 7.624)" fill="#fff"/>
      <path id="Path_38801" data-name="Path 38801" d="M65.107,43.324a3.326,3.326,0,0,0,2.6.971h.9a.383.383,0,0,1,.361.158.613.613,0,0,1,.091.294v4.52a.612.612,0,0,1-.091.292.38.38,0,0,1-.361.158h-2.8a7.308,7.308,0,0,1-5.873-2.371A9.419,9.419,0,0,1,57.9,41V22.029L64.225,15.1V40a4.93,4.93,0,0,0,.881,3.321" transform="translate(18.379 4.794)" fill="#fff"/>
      <path id="Path_38802" data-name="Path 38802" d="M77.479,41.981a5.323,5.323,0,0,0,4.384,1.672.383.383,0,0,1,.361.158.609.609,0,0,1,.09.292v4.52a.614.614,0,0,1-.09.294.385.385,0,0,1-.361.158,8.657,8.657,0,0,1-3.255-.723,9.256,9.256,0,0,1-3.162-2.168,8.088,8.088,0,0,1-6.507,2.892h-2.8a.385.385,0,0,1-.362-.158.614.614,0,0,1-.09-.294V44.1a.609.609,0,0,1,.09-.292.382.382,0,0,1,.362-.158h.9a4.036,4.036,0,0,0,3.1-1.423,5.416,5.416,0,0,0,1.287-3.774V26.662H77.75V39.451a11.567,11.567,0,0,1-.271,2.531M71.334,17.128h6.507v5.694H71.334Z" transform="translate(20.851 5.436)" fill="#fff"/>
      <path id="Path_38803" data-name="Path 38803" d="M78.073,49.718a.384.384,0,0,1-.361-.158.6.6,0,0,1-.091-.294v-4.52a.6.6,0,0,1,.091-.292.381.381,0,0,1,.361-.158h4.519V22.028L88.873,15.1V49.718Z" transform="translate(24.639 4.794)" fill="#fff"/>
      <path id="Path_38804" data-name="Path 38804" d="M91.993,49.718V22.028L98.319,15.1V49.718Z" transform="translate(29.202 4.794)" fill="#fff"/>
      <path id="Path_38805" data-name="Path 38805" d="M115.812,33.892v3.661q0,6.1,6.643,6.1h11.433A7.992,7.992,0,0,1,131,37.011a9.726,9.726,0,0,1,1.6-5.378,11.407,11.407,0,0,1,4.428-3.954,13.464,13.464,0,0,1,6.305-1.469,62.441,62.441,0,0,1,8.991.9V39.451a11.65,11.65,0,0,1-.271,2.531,5.32,5.32,0,0,0,4.383,1.672.379.379,0,0,1,.361.158.6.6,0,0,1,.091.292v4.52a.6.6,0,0,1-.091.294.381.381,0,0,1-.361.158,8.656,8.656,0,0,1-3.253-.723,9.247,9.247,0,0,1-3.163-2.168,8.087,8.087,0,0,1-6.508,2.892H120.556q-5.739,0-8.405-3.005a10.916,10.916,0,0,1-2.665-7.524m28.106-.723a5.585,5.585,0,0,0,1.447,3.954,5.942,5.942,0,0,0,3.84,1.83,4.69,4.69,0,0,0,2.282-1.942A6,6,0,0,0,146,38.456V31.949a14.961,14.961,0,0,0-2.892-.316q-5.515,0-5.513,6.191m2.349-20.7h6.507v5.694h-6.507Z" transform="translate(34.754 5.436)" fill="#fff"/>
      <path id="Path_38806" data-name="Path 38806" d="M169.226,27.114V49.076H145.232a.385.385,0,0,1-.362-.158.614.614,0,0,1-.09-.294V44.1a.609.609,0,0,1,.09-.292.382.382,0,0,1,.362-.158h5.6a8,8,0,0,1-2.892-6.642,9.737,9.737,0,0,1,1.6-5.378,11.4,11.4,0,0,1,4.429-3.954,13.455,13.455,0,0,1,6.3-1.469,62.322,62.322,0,0,1,8.947.9m-17.307-9.986h6.507v5.694h-6.507Zm2.622,20.7a5.457,5.457,0,0,0,1.672,4.158,6.382,6.382,0,0,0,4.337,1.672h2.35v-11.7a14.781,14.781,0,0,0-2.847-.316q-5.512,0-5.512,6.191m6.417-20.7h6.505v5.694h-6.505Z" transform="translate(45.958 5.436)" fill="#fff"/>
      <path id="Path_38807" data-name="Path 38807" d="M191,41.645a.713.713,0,0,1,.091.27v4.52a.609.609,0,0,1-.091.292.382.382,0,0,1-.361.159h-2.847q-.407,5.1-3.323,7.411a17.662,17.662,0,0,1-8.2,3.163l-2.53-5.649a19.06,19.06,0,0,0,4.45-1.017,5.232,5.232,0,0,0,2.508-1.943,6.242,6.242,0,0,0,.858-3.5V29.761a14.95,14.95,0,0,0-2.892-.316q-5.513,0-5.512,6.191a6.093,6.093,0,0,0,1.423,4.27,5.256,5.256,0,0,0,4.089,1.559h1.989l-2.441,5.424h-.632a11.334,11.334,0,0,1-5.625-1.4,9.98,9.98,0,0,1-3.931-3.976,12.122,12.122,0,0,1-1.424-5.965,11.523,11.523,0,0,1,1.536-5.9,10.767,10.767,0,0,1,4.316-4.134,13.4,13.4,0,0,1,6.44-1.491,64.022,64.022,0,0,1,8.991.9V41.464h2.757a.367.367,0,0,1,.361.182" transform="translate(52.883 7.625)" fill="#fff"/>
      <path id="Path_38808" data-name="Path 38808" d="M184.952,49.718a.384.384,0,0,1-.362-.158.614.614,0,0,1-.09-.294v-4.52a.61.61,0,0,1,.09-.292.381.381,0,0,1,.362-.158h4.519V22.028l6.28-6.924V49.718Z" transform="translate(58.566 4.794)" fill="#fff"/>
      <path id="Path_38809" data-name="Path 38809" d="M198.871,49.718V22.028L205.2,15.1V49.718Z" transform="translate(63.128 4.794)" fill="#fff"/>
      <path id="Path_38810" data-name="Path 38810" d="M10.738,70.129H5.089L3.848,74.1H0L5.625,57.053H10.52L16.241,74.1H12ZM9.667,66.842l-1.8-5.577L6.113,66.842Z" transform="translate(0 18.11)" fill="#fff"/>
      <path id="Path_38811" data-name="Path 38811" d="M28.016,70.567V74.1h-11.1V57.053h3.993V70.567Z" transform="translate(5.369 18.11)" fill="#fff"/>
      <path id="Path_38812" data-name="Path 38812" d="M53.609,57.053,48.958,74.1H44.306l-2.995-11.64L38.585,74.1H33.933L29.185,57.053h4.237l3.142,12.2,2.825-12.2H43.8l3.02,11.809,2.947-11.809Z" transform="translate(9.264 18.11)" fill="#fff"/>
      <path id="Path_38813" data-name="Path 38813" d="M61.937,70.129H56.288L55.047,74.1H51.2l5.625-17.045h4.894L67.44,74.1H63.2Zm-1.071-3.287-1.8-5.577-1.752,5.577Z" transform="translate(16.252 18.11)" fill="#fff"/>
      <path id="Path_38814" data-name="Path 38814" d="M80.667,73.236a19,19,0,0,1-2.216.827,18.51,18.51,0,0,0,3.774,1.291l-1.582,3.554a30.52,30.52,0,0,1-7.233-4.431,6.207,6.207,0,0,1-4.565-2.411A9.945,9.945,0,0,1,67.371,66.2a17.319,17.319,0,0,1,.573-4.371,13.887,13.887,0,0,1,1.522-3.761,14.715,14.715,0,0,1,5.844-1.291q3.822,0,5.637,2.058t1.814,6.27a17.369,17.369,0,0,1-.572,4.371,13.937,13.937,0,0,1-1.523,3.763M72.339,60.914a16.074,16.074,0,0,0-.73,4.8,6.788,6.788,0,0,0,.852,3.871,3.257,3.257,0,0,0,2.848,1.194,7.77,7.77,0,0,0,2.483-.39,16.1,16.1,0,0,0,.731-4.8,6.8,6.8,0,0,0-.852-3.872,3.266,3.266,0,0,0-2.85-1.194,7.807,7.807,0,0,0-2.483.39" transform="translate(21.386 18.022)" fill="#fff"/>
      <path id="Path_38815" data-name="Path 38815" d="M87.889,60.583V63.8h7.4v3.531h-7.4V74.1H83.9V57.053H95.779v3.531Z" transform="translate(26.631 18.11)" fill="#fff"/>
      <path id="Path_38816" data-name="Path 38816" d="M114.3,70.129h-5.649L107.41,74.1h-3.848l5.625-17.045h4.894L119.8,74.1h-4.237Zm-1.071-3.287-1.8-5.577-1.752,5.577Z" transform="translate(32.874 18.11)" fill="#fff"/>
      <path id="Path_38817" data-name="Path 38817" d="M131.578,70.567V74.1h-11.1V57.053h3.993V70.567Z" transform="translate(38.243 18.11)" fill="#fff"/>
      <path id="Path_38818" data-name="Path 38818" d="M144.6,74.1l-5.21-7.159a22.11,22.11,0,0,1-1.876-3.043l-.145.047a21.281,21.281,0,0,1,.17,3.384V74.1h-3.677V57.053h3.677l5.21,7.256a27.153,27.153,0,0,1,1.876,3.043l.145-.049a21.261,21.261,0,0,1-.17-3.384V57.053h3.677V74.1Z" transform="translate(42.491 18.11)" fill="#fff"/>
      <path id="Path_38819" data-name="Path 38819" d="M160.12,70.129h-5.649L153.23,74.1h-3.848l5.625-17.045H159.9L165.623,74.1h-4.237Zm-1.071-3.287-1.8-5.577-1.752,5.577Z" transform="translate(47.419 18.11)" fill="#fff"/>
      <path id="Path_38820" data-name="Path 38820" d="M175.923,70.129h-5.649L169.033,74.1h-3.848l5.625-17.045H175.7L181.426,74.1h-4.237Zm-1.071-3.287-1.8-5.577L171.3,66.842Z" transform="translate(52.435 18.11)" fill="#fff"/>
      <path id="Path_38821" data-name="Path 38821" d="M199.509,57.053V74.1h-3.993V67.4a26.223,26.223,0,0,1,.219-3.652h-.219a15.371,15.371,0,0,1-1.121,3.312l-2.24,5.064h-3.043l-2.29-5.064a19.054,19.054,0,0,1-1.071-3.312h-.22a26.2,26.2,0,0,1,.22,3.652v6.7H182.1V57.053h3.946l5.015,11.3,4.676-11.3Z" transform="translate(57.804 18.11)" fill="#fff"/>
      <rect id="Rectangle_12472" data-name="Rectangle 12472" width="3.993" height="17.045" transform="translate(264.813 75.162)" fill="#fff"/>
    </g>
  </g>
</svg>
