<svg id="ic-library" xmlns="http://www.w3.org/2000/svg" width="33.334" height="28.806" viewBox="0 0 33.334 28.806">
  <path id="Path_22586" data-name="Path 22586" d="M47.726,71.366a1.213,1.213,0,0,0-1.057-.682H45.561V54.332a2.422,2.422,0,0,0-2.42-2.42H34.6V49.159a1.728,1.728,0,0,0-1.726-1.726H29.762a1.728,1.728,0,0,0-1.726,1.726v.084a1.729,1.729,0,0,0-.345-.035H24.582a1.728,1.728,0,0,0-1.726,1.726v.977H19.489a2.422,2.422,0,0,0-2.42,2.42V70.684H15.962a1.213,1.213,0,0,0-1.057.682,2.267,2.267,0,0,0,.044,2.176.694.694,0,0,0,.082.106c2.437,2.591,2.562,2.591,2.9,2.591H44.7c.333,0,.458,0,2.9-2.591a.7.7,0,0,0,.082-.106A2.267,2.267,0,0,0,47.726,71.366ZM18.153,74.858c-.356-.322-1.274-1.264-2.059-2.1a.961.961,0,0,1,0-.7H27.172v.3a1.785,1.785,0,0,0,1.783,1.783h4.722a1.785,1.785,0,0,0,1.783-1.783v-.3H46.535a.961.961,0,0,1,0,.7c-.784.832-1.7,1.774-2.059,2.1Zm.3-20.526a1.04,1.04,0,0,1,1.038-1.038h3.367v17.39H18.451Zm6.132-3.742H27.69a.346.346,0,0,1,.345.345v.74h-3.8v-.74A.346.346,0,0,1,24.582,50.59Zm5.179-1.776h3.108a.346.346,0,0,1,.345.345v.74h-3.8v-.74A.346.346,0,0,1,29.762,48.814Zm3.453,3.5h-3.8V51.28h3.8ZM44.18,54.332V66.2L39.322,55.777a1.728,1.728,0,0,0-2.294-.835L34.6,56.077V53.293h8.546A1.04,1.04,0,0,1,44.18,54.332Zm-9.552,3.634a.346.346,0,0,1,.167-.459l2.816-1.313a.345.345,0,0,1,.459.167l.313.671-3.442,1.605Zm9.116,11.379-2.816,1.313a.346.346,0,0,1-.459-.167l-3.923-8.413,3.442-1.605,3.923,8.413A.328.328,0,0,1,43.744,69.345Zm-10.53,1.338h-3.8V53.7h3.8Zm1.381,0V61.165l4.439,9.519Zm1.367-9.856-.438-.939,3.442-1.605.438.939ZM24.237,55.473h3.8V70.684h-3.8Zm4.316,16.6h5.525v.289a.4.4,0,0,1-.4.4H28.954a.4.4,0,0,1-.4-.4v-.289Zm-.518-19.016v1.036h-3.8V53.056Z" transform="translate(-14.648 -47.433)" fill="#fff"/>
  <path id="Path_22587" data-name="Path 22587" d="M163.072,338.3h-1.381a.691.691,0,1,0,0,1.381h1.381a.691.691,0,1,0,0-1.381Zm3.8,1.381h1.381a.691.691,0,1,0,0-1.381H166.87a.691.691,0,1,0,0,1.381Zm11.319-2.127-1.252.584a.691.691,0,1,0,.584,1.252l1.252-.584a.691.691,0,0,0-.584-1.252Z" transform="translate(-150.893 -317.459)" fill="#fff"/>
</svg>
