<svg xmlns="http://www.w3.org/2000/svg" width="32.283" height="28" viewBox="0 0 32.283 42.513">
  <g id="ic-list-tlbat" transform="translate(0.1 0.097)">
    <path id="ee47538cf3b5865ca347bca87575e6bd" d="M33.437,5.551h-3.72a3.646,3.646,0,0,0-3.571-2.917c-.02.035-9.916-.07-10.208,0a3.646,3.646,0,0,0-3.571,2.916H8.646A3.646,3.646,0,0,0,5,9.2V41.281a3.646,3.646,0,0,0,3.646,3.646H33.437a3.646,3.646,0,0,0,3.646-3.646V9.2A3.646,3.646,0,0,0,33.437,5.551Zm-17.5-1.458H26.146a2.187,2.187,0,0,1,0,4.375H15.937a2.187,2.187,0,0,1,0-4.375ZM35.625,41.281a2.187,2.187,0,0,1-2.187,2.187H8.646a2.187,2.187,0,0,1-2.187-2.187V9.2A2.187,2.187,0,0,1,8.646,7.01h3.72a3.646,3.646,0,0,0,3.571,2.917H26.146A3.646,3.646,0,0,0,29.717,7.01h3.72A2.187,2.187,0,0,1,35.625,9.2ZM11.562,27.426H17.4a2.187,2.187,0,0,0,2.187-2.187V23.781a.729.729,0,0,0-1.458,0v1.458a.729.729,0,0,1-.729.729H11.562a.729.729,0,0,1-.729-.729V19.406a.729.729,0,0,1,.729-.729H17.4a.729.729,0,0,0,0-1.458H11.562a2.187,2.187,0,0,0-2.187,2.187v5.833A2.187,2.187,0,0,0,11.562,27.426Zm8.286-9.266-4.64,4.64-1.724-1.724a.729.729,0,1,0-1.031,1.031l2.24,2.238a.729.729,0,0,0,1.031,0l5.157-5.155A.729.729,0,1,0,19.85,18.16Zm-.995,18.016a.729.729,0,0,0-.729.729v1.458a.729.729,0,0,1-.729.729H11.562a.729.729,0,0,1-.729-.729V32.531a.729.729,0,0,1,.729-.729H17.4a.729.729,0,0,0,0-1.458H11.562a2.187,2.187,0,0,0-2.187,2.187v5.833a2.187,2.187,0,0,0,2.187,2.188H17.4a2.187,2.187,0,0,0,2.187-2.187V36.906A.729.729,0,0,0,18.854,36.176Zm.995-4.891-4.64,4.64L13.485,34.2a.729.729,0,1,0-1.031,1.031l2.24,2.238a.729.729,0,0,0,1.031,0l5.157-5.155a.729.729,0,1,0-1.031-1.031ZM15.937,14.3h8.75a.729.729,0,0,0,0-1.458h-8.75a.729.729,0,1,0,0,1.458Zm16.042,5.833h-8.75a.729.729,0,0,0,0,1.458h8.75a.729.729,0,1,0,0-1.458Zm0,2.917h-8.75a.729.729,0,0,0,0,1.458h8.75a.729.729,0,1,0,0-1.458Zm0,10.208h-8.75a.729.729,0,1,0,0,1.458h8.75a.729.729,0,1,0,0-1.458Zm0,2.917h-8.75a.729.729,0,0,0,0,1.458h8.75a.729.729,0,1,0,0-1.458Z" transform="translate(-5 -2.61)" fill="#fff" stroke="#fff" stroke-width="0.2"/>
  </g>
</svg>
