<svg id="ic-q_A" data-name="ic-q&amp;A" xmlns="http://www.w3.org/2000/svg" width="39.474" height="24.99" viewBox="0 0 39.474 24.99">
  <g id="_Group_" data-name="&lt;Group&gt;" transform="translate(11.199 4.145)">
    <path id="_Group_2" data-name="&lt;Group&gt;" d="M171.731,227.641a.729.729,0,0,1,.212.529.7.7,0,0,1-.225.55.752.752,0,0,1-.516.2.775.775,0,0,1-.533-.2.69.69,0,0,1-.229-.554.72.72,0,0,1,.221-.529.744.744,0,0,1,.541-.212A.729.729,0,0,1,171.731,227.641Z" transform="translate(-168.762 -221.355)" fill="#fff"/>
    <path id="_Group_3" data-name="&lt;Group&gt;" d="M152.08,151.691a2.919,2.919,0,0,1,1.283.267,2.1,2.1,0,0,1,.854.725,1.773,1.773,0,0,1,.3,1,1.576,1.576,0,0,1-.171.746,2.343,2.343,0,0,1-.412.554c-.158.154-.441.416-.85.783a2.84,2.84,0,0,0-.275.271,1.138,1.138,0,0,0-.15.216.931.931,0,0,0-.079.192c-.017.067-.046.179-.083.346a.555.555,0,0,1-.6.516.617.617,0,0,1-.437-.167.684.684,0,0,1-.175-.508,1.77,1.77,0,0,1,.475-1.266,7.926,7.926,0,0,1,.579-.55q.319-.281.462-.425a1.48,1.48,0,0,0,.242-.316.788.788,0,0,0,.1-.379.89.89,0,0,0-.3-.675,1.091,1.091,0,0,0-.77-.275,1.065,1.065,0,0,0-.808.275,2.217,2.217,0,0,0-.441.82c-.112.375-.325.562-.641.562a.647.647,0,0,1-.475-.2.6.6,0,0,1-.192-.429,1.8,1.8,0,0,1,.3-.962,2.375,2.375,0,0,1,.891-.808A2.8,2.8,0,0,1,152.08,151.691Z" transform="translate(-149.523 -151.69)" fill="#fff"/>
  </g>
  <g id="_Group_4" data-name="&lt;Group&gt;">
    <path id="_Compound_Path_" data-name="&lt;Compound Path&gt;" d="M29.576,115.4a7.7,7.7,0,0,0,0-15.4H17.523a7.7,7.7,0,0,0,0,15.4h2.363v4.8a.647.647,0,0,0,.408.6.653.653,0,0,0,.241.046.627.627,0,0,0,.465-.179l5.052-5.26Zm-4.267-1.1-4.14,4.3v-3.879a.6.6,0,0,0-.631-.6H17.523a6.415,6.415,0,0,1,0-12.829H29.576a6.415,6.415,0,0,1,0,12.829h-3.8a.637.637,0,0,0-.469.179Z" transform="translate(-9.851 -100)" fill="#fff"/>
    <path id="_Path_" data-name="&lt;Path&gt;" d="M216.756,152h-2.89a.641.641,0,1,0,0,1.283h2.89a6.375,6.375,0,0,1,0,12.749H213.74a.666.666,0,0,0-.631.679v3.878l-4.14-4.341a.673.673,0,0,0-.469-.216h-3.8a6.325,6.325,0,0,1-3.492-1.021.644.644,0,0,0-.888.194.625.625,0,0,0,.184.874,7.61,7.61,0,0,0,4.2,1.236h3.524l5.05,5.3a.651.651,0,0,0,.464.207.662.662,0,0,0,.244-.041.64.64,0,0,0,.408-.591v-4.873h2.363a7.658,7.658,0,1,0,0-15.315Z" transform="translate(-184.953 -147.83)" fill="#fff"/>
  </g>
</svg>
