<svg id="ic-serv-mzod" xmlns="http://www.w3.org/2000/svg" width="40.375" height="40.027" viewBox="0 0 40.375 40.027">
  <ellipse id="Ellipse_207" data-name="Ellipse 207" cx="0.631" rx="0.631" transform="translate(0 35.796)" fill="#fff"/>
  <path id="Path_22572" data-name="Path 22572" d="M7.224,147.5H6.489a.523.523,0,0,0,0,1.044h.734a.523.523,0,0,0,0-1.044Zm36.466,0h-.734a.523.523,0,0,0,0,1.044h.734a.523.523,0,0,0,0-1.044Z" transform="translate(-4.902 -112.169)" fill="#fff"/>
  <ellipse id="Ellipse_208" data-name="Ellipse 208" cx="0.631" rx="0.631" transform="translate(39.114 35.796)" fill="#fff"/>
  <path id="Path_22573" data-name="Path 22573" d="M66.3,155.5H64.136a.523.523,0,0,0,0,1.044H66.3a.523.523,0,0,0,0-1.044Zm-15.655,0H48.482a.523.523,0,0,0,0,1.044h2.168a.523.523,0,0,0,0-1.044Zm11.962,0H52.175a.522.522,0,1,0,0,1.044h4.159v.522H54.262a.522.522,0,0,0,0,1.044h6.523a.522.522,0,0,0,0-1.044H58.452v-.522h4.159a.522.522,0,1,0,0-1.044Z" transform="translate(-37.205 -118.082)" fill="#fff"/>
  <path id="Path_22574" data-name="Path 22574" d="M58,33.923v5.74a1.045,1.045,0,0,0,1.044,1.044h11.48a1.045,1.045,0,0,0,1.044-1.044v-5.74a4.179,4.179,0,0,0-4.175-4.175h-.058a3.653,3.653,0,1,0-5.1,0h-.058A4.179,4.179,0,0,0,58,33.923Zm4.175-6.784a2.609,2.609,0,1,1,2.609,2.609A2.609,2.609,0,0,1,62.175,27.139Zm5.218,3.653a3.135,3.135,0,0,1,3.131,3.131v5.74H59.044v-5.74a3.135,3.135,0,0,1,3.131-3.131Z" transform="translate(-44.596 -18.007)" fill="#fff"/>
  <path id="Path_22575" data-name="Path 22575" d="M47.929,53.417H37.174l1.407-.579a.966.966,0,0,0,.524-1.262l-.425-1.021a13.345,13.345,0,0,0,1.2-.8l.786.782a.976.976,0,0,0,1.373,0l1.371-1.364a.964.964,0,0,0,0-1.366l-.786-.782a13.269,13.269,0,0,0,.8-1.19l1.026.422a.977.977,0,0,0,1.269-.521l.742-1.784a.966.966,0,0,0-.527-1.262l-1.024-.422a13.965,13.965,0,0,0,.279-1.4H46.3a.968.968,0,0,0,.971-.965V33.142a3.877,3.877,0,0,0-3.882-3.862h-.053a3.392,3.392,0,1,0-4.746,0h-.053a3.844,3.844,0,0,0-1.218.2,4.877,4.877,0,0,1,.755.808,2.927,2.927,0,0,1,.463-.041h4.853a2.906,2.906,0,0,1,2.912,2.9v5.31H39.02a1.918,1.918,0,0,1-.262.965H46.3V39.9H44.761a.485.485,0,0,0-.483.43,12.457,12.457,0,0,1-.417,2.09.482.482,0,0,0,.281.579l1.419.587-.742,1.784L43.4,44.783A.485.485,0,0,0,42.79,45,12.747,12.747,0,0,1,41.6,46.767a.479.479,0,0,0,.036.642l1.087,1.084-1.371,1.364L40.26,48.775a.485.485,0,0,0-.645-.036,12.823,12.823,0,0,1-1.781,1.188.48.48,0,0,0-.214.606l.59,1.412-1.793.739-.59-1.412a.488.488,0,0,0-.582-.28,12.638,12.638,0,0,1-2.1.415.484.484,0,0,0-.432.48v1.53H30.771v-1.53a.484.484,0,0,0-.432-.48c-.7-.077-2.191-.434-2.235-.434a.49.49,0,0,0-.449.3l-.59,1.412-1.793-.739.59-1.412a.48.48,0,0,0-.214-.606,12.822,12.822,0,0,1-1.781-1.188.485.485,0,0,0-.645.036l-1.089,1.081-1.371-1.364,1.087-1.084a.479.479,0,0,0,.036-.642A12.746,12.746,0,0,1,20.692,45a.485.485,0,0,0-.609-.212l-1.419.587-.742-1.784L19.341,43a.483.483,0,0,0,.281-.579,12.457,12.457,0,0,1-.417-2.09.485.485,0,0,0-.483-.43H17.184v-.483h7.541a1.918,1.918,0,0,1-.262-.965H17.184v-5.31a2.906,2.906,0,0,1,2.912-2.9h4.853a2.927,2.927,0,0,1,.463.041,4.877,4.877,0,0,1,.755-.809,3.844,3.844,0,0,0-1.218-.2h-.053a3.392,3.392,0,1,0-4.746,0H20.1a3.877,3.877,0,0,0-3.882,3.862V39.9a.968.968,0,0,0,.971.965h1.111a13.961,13.961,0,0,0,.279,1.4l-1.024.422a.966.966,0,0,0-.526,1.262l.742,1.784a.975.975,0,0,0,1.269.521l1.026-.422a13.266,13.266,0,0,0,.8,1.19l-.786.782a.964.964,0,0,0,0,1.366l1.371,1.364a.976.976,0,0,0,1.373,0l.786-.782a13.346,13.346,0,0,0,1.2.8l-.425,1.021a.966.966,0,0,0,.524,1.262l1.407.579H15.553a.49.49,0,0,0-.477.221.485.485,0,0,0,0,.523.49.49,0,0,0,.477.221H47.929a.49.49,0,0,0,.477-.221.485.485,0,0,0,0-.523A.49.49,0,0,0,47.929,53.417ZM40.961,29.28a2.414,2.414,0,1,1,2.426-2.414A2.42,2.42,0,0,1,40.961,29.28ZM20.1,26.866a2.426,2.426,0,1,1,2.426,2.414A2.42,2.42,0,0,1,20.1,26.866ZM29.8,53.417H27.692a.956.956,0,0,0,.272-.364l.425-1.019a14.157,14.157,0,0,0,1.412.278Zm3.882,0V52.311a14.161,14.161,0,0,0,1.412-.278l.425,1.019a.956.956,0,0,0,.272.364Z" transform="translate(-11.553 -18.008)" fill="#fff"/>
  <path id="Path_22576" data-name="Path 22576" d="M66.336,89.5a9.652,9.652,0,0,1-19.276,0h1.046a8.608,8.608,0,0,0,17.184,0Z" transform="translate(-36.51 -68.501)" fill="#fff"/>
  <path id="Path_22577" data-name="Path 22577" d="M27.2,4.065a.76.76,0,0,0,.735-.783.736.736,0,1,0-1.469,0,.761.761,0,0,0,.735.783Zm0-1.174a.392.392,0,1,1-.367.391A.38.38,0,0,1,27.2,2.891ZM42.021,19.72a.523.523,0,1,0,.49.522A.507.507,0,0,0,42.021,19.72Zm0,.783a.261.261,0,1,1,.245-.261A.253.253,0,0,1,42.021,20.5ZM4.795,4.261a.523.523,0,1,0,.49.522A.507.507,0,0,0,4.795,4.261Zm0,.783a.261.261,0,1,1,.245-.261A.253.253,0,0,1,4.795,5.044Zm37.642.391a.523.523,0,1,0,.49.522A.507.507,0,0,0,42.436,5.435Zm0,.783a.261.261,0,1,1,.245-.261A.253.253,0,0,1,42.436,6.218ZM9.8,10.654a.491.491,0,1,0-.49.522A.507.507,0,0,0,9.8,10.654Zm-.735,0a.245.245,0,1,1,.245.261A.253.253,0,0,1,9.067,10.654Z" transform="translate(-3.649 -2.5)" fill="#fff"/>
  <path id="Path_22578" data-name="Path 22578" d="M8.528,66.673l.388-.51-.245-.139-.249.571H8.414l-.253-.567-.249.143.384.5v.008L7.7,66.6v.278l.6-.077v.008l-.388.5.232.147.266-.576h.008l.245.571L8.92,67.3l-.392-.49V66.8l.616.074V66.6l-.616.081Z" transform="translate(-6.155 -50.459)" fill="#fff"/>
  <path id="Path_22579" data-name="Path 22579" d="M66.764,18.489l-.223.287.134.085.153-.332h0l.141.329.148-.085-.226-.282v0l.355.042v-.16l-.355.047v0l.223-.294-.141-.08-.143.329h0l-.146-.327-.144.082.221.287v0l-.346-.045v.16l.348-.045Z" transform="translate(-50.566 -13.984)" fill="#fff"/>
  <path id="Path_22580" data-name="Path 22580" d="M154.778,39.843v-.272l-.6.08v-.008l.38-.5-.24-.136-.244.56h-.008l-.248-.557-.244.14.376.488v.008l-.589-.076v.272l.593-.076v.008l-.38.488.228.144.26-.565h.008l.24.561.252-.144-.384-.481v-.008Z" transform="translate(-116.334 -30.061)" fill="#fff"/>
  <path id="Path_22581" data-name="Path 22581" d="M127.79,14.8l.328-.432-.207-.117-.211.483h-.007l-.214-.48-.211.121.325.422V14.8l-.508-.066v.235l.511-.066v.007l-.328.421.2.124.225-.487h.007l.207.483.218-.124-.332-.414V14.91l.522.062v-.235l-.522.069Z" transform="translate(-96.374 -11.184)" fill="#fff"/>
</svg>
