<svg xmlns="http://www.w3.org/2000/svg" width="40.676" height="34.321" viewBox="0 0 40.676 34.321">
  <g id="ic-money" transform="translate(0.15 0.169)">
    <path id="Path_22449" data-name="Path 22449" d="M33.756,7.872a.531.531,0,0,0,.531-.531V5.572a1.743,1.743,0,0,0-1.74-1.74H29.692L29.04,1.909a.531.531,0,0,0-.658-.338L12.92,6.272a.532.532,0,0,0,.31,1.017L28.2,2.737,29.627,6.95a.531.531,0,1,0,1.006-.341l-.581-1.716h2.5a.678.678,0,0,1,.678.678v1.77A.53.53,0,0,0,33.756,7.872Z" transform="translate(0.786 0.098)" fill="#fff" stroke="#fff" stroke-width="0.3"/>
    <path id="Path_22450" data-name="Path 22450" d="M38.782,15.938a.531.531,0,0,0,0,1.063c.373,0,.531.158.531.531v6.375c0,.373-.158.531-.531.531h-8.5c-.373,0-.531-.158-.531-.531V18.594c0-.373.158-.531.531-.531h6.375a.531.531,0,0,0,.531-.531V11.157a1.494,1.494,0,0,0-1.594-1.594H3.188A1.972,1.972,0,0,1,1.063,7.438,1.972,1.972,0,0,1,3.188,5.313H8.581L5.366,6.373A.531.531,0,1,0,5.7,7.381L24.95,1.035A.532.532,0,1,0,24.617.026L11.76,4.265a.415.415,0,0,0-.072-.015h-8.5A3.018,3.018,0,0,0,0,7.438V30.813A3.018,3.018,0,0,0,3.188,34H35.595a1.494,1.494,0,0,0,1.594-1.594V27.095a.531.531,0,0,0-1.063,0v5.313c0,.373-.158.531-.531.531H3.188a1.972,1.972,0,0,1-2.125-2.125V9.894a3.228,3.228,0,0,0,2.125.731H35.595c.373,0,.531.158.531.531V17H30.282a1.494,1.494,0,0,0-1.594,1.594v5.313A1.494,1.494,0,0,0,30.282,25.5h8.5a1.494,1.494,0,0,0,1.594-1.594V17.532A1.494,1.494,0,0,0,38.782,15.938Z" transform="translate(0 0.001)" fill="#fff" stroke="#fff" stroke-width="0.3"/>
    <circle id="Ellipse_3" data-name="Ellipse 3" cx="0.833" cy="0.833" r="0.833" transform="translate(33.521 20.333)" fill="#fff" stroke="#fff" stroke-width="0.3"/>
  </g>
</svg>
